# xmcd
#
# Track frame offsets:
#	150
#	3710
#	23285
#	41705
#	63125
#	85067
#	103737
#	124062
#	145042
#	180952
#	203720
#	218582
#	234797
#	251017
#
# Disc length: 3729 seconds
#
# Revision: 1
# Processed by: cddbd v1.5.1PL0 Copyright (c) Steve Scherf et al.
# Submitted via: CDex 1.50Beta5
#
DISCID=a80e8f0e
DTITLE=THE ALFEE - ONE NIGHT DREAMS 1
DYEAR=1900
DGENRE=Pop
TTITLE0=OVER DRIVE
TTITLE1=夢よ急げ
TTITLE2=メリーアン
TTITLE3=AFFECTION
TTITLE4=恋人たちのペイヴメント
TTITLE5=シンデレラは眠れない
TTITLE6=AMERICAN DREAM
TTITLE7=星空のディスタンス
TTITLE8=SWEAT and TEARS
TTITLE9=SAVED BY THE LOVE SONG
TTITLE10=明日なき暴走の果てに
TTITLE11=ロンサム・シティ
TTITLE12=Musician
TTITLE13=THE AGES
EXTD=
EXTT0=
EXTT1=
EXTT2=
EXTT3=
EXTT4=
EXTT5=
EXTT6=
EXTT7=
EXTT8=
EXTT9=
EXTT10=
EXTT11=
EXTT12=
EXTT13=
PLAYORDER=
